<svg fill="#d500f9" id="light" enable-background="new 0 0 24 24" height="512" viewBox="0 0 24 24" width="512" xmlns="http://www.w3.org/2000/svg"><path d="m9.59 16.8c-.128 0-.256-.049-.354-.146l-4.16-4.16c-.188-.188-.196-.489-.02-.687l4.82-5.399c.03-.043.07-.085.115-.121 3.427-3.93 8.701-6.396 13.52-6.287.268.006.483.222.489.489.069 3.261-1.032 6.766-3.104 9.869-.154.23-.466.29-.693.138-.229-.153-.292-.464-.139-.694 1.827-2.736 2.883-5.916 2.937-8.804-4.339.076-9.22 2.439-12.293 5.989-.021.025-.045.047-.07.067l-4.52 5.067 3.825 3.825c.195.195.195.512 0 .707-.097.098-.225.147-.353.147z"/><path d="m6.541 11.412c-.024 0-.048-.001-.072-.005l-4.787-.686c-.188-.027-.343-.157-.403-.337s-.013-.378.121-.512c2.41-2.41 5.569-3.717 8.931-3.717.276 0 .5.224.5.5s-.224.5-.5.5c-2.765 0-5.381.961-7.467 2.725l3.748.537c.273.04.463.292.424.566-.037.249-.251.429-.495.429z"/><path d="m17.133 9.367c-.668 0-1.296-.26-1.768-.732-.975-.975-.975-2.561 0-3.536.943-.944 2.59-.945 3.535 0 .975.975.975 2.561 0 3.536-.472.472-1.1.732-1.767.732zm0-3.999c-.401 0-.777.156-1.061.439-.585.585-.585 1.537 0 2.122.565.566 1.554.567 2.121 0 .585-.585.585-1.537 0-2.122-.283-.284-.66-.439-1.06-.439zm1.414 2.914h.01z"/><path d="m.5 24c-.131 0-.259-.051-.354-.146-.13-.13-.178-.321-.125-.497.163-.547 1.632-5.381 2.702-6.451 1.205-1.205 3.166-1.205 4.371 0s1.205 3.166 0 4.371c-1.07 1.07-5.903 2.539-6.451 2.703-.046.013-.095.02-.143.02zm4.409-6.999c-.535 0-1.071.204-1.479.611-.577.578-1.537 3.159-2.17 5.127 1.968-.634 4.55-1.594 5.127-2.171.815-.815.815-2.142 0-2.957-.407-.406-.943-.61-1.478-.61z"/><path d="m17.5 24c-3.584 0-6.5-2.916-6.5-6.5s2.916-6.5 6.5-6.5 6.5 2.916 6.5 6.5-2.916 6.5-6.5 6.5zm0-12c-3.032 0-5.5 2.467-5.5 5.5s2.468 5.5 5.5 5.5 5.5-2.467 5.5-5.5-2.468-5.5-5.5-5.5z"/><path d="m16.5 20c-.133 0-.26-.053-.354-.146l-2-2c-.195-.195-.195-.512 0-.707s.512-.195.707 0l1.622 1.622 3.148-3.598c.182-.209.498-.229.705-.047.208.182.229.498.047.706l-3.5 4c-.091.104-.221.166-.359.17-.005 0-.01 0-.016 0z"/></svg>